<svg xmlns="http://www.w3.org/2000/svg" width="200" height="92" viewBox="0 0 200 92">
  <g fill="none">
    <g fill="#262261" transform="translate(0 31.388)">
      <path d="M23.0557717 59.7846952C11.8806744 59.7846952 0 51.5019455 0 36.150454 0 22.9442283 10.1997406 12.9831388 23.7276265 12.9831388 32.0544747 12.9831388 37.4760052 17.6964981 39.0557717 19.5045396L39.0557717 14.4669261 49.9844358 14.4669261 49.9844358 58.3787289 39.0557717 58.3787289 39.0557717 53.4915694C35.309987 57.1725032 28.7367056 59.7846952 23.0557717 59.7846952zM25.4215305 23.151751C16.6018158 23.151751 11.8521401 30.0907912 11.8521401 36.61738 11.8521401 43.9066148 17.8184176 49.618677 25.4111543 49.618677 33.1258106 49.618677 38.7211414 44.0181582 38.7211414 36.30869 38.7211414 27.6705577 32.0259403 23.151751 25.4215305 23.151751zM73.309987 59.7846952C64.2957198 59.7846952 59.4682231 55.4111543 57.3955901 52.8015564 53.8702983 48.1063554 53.8702983 41.1413748 53.8702983 37.3981842L53.8702983 14.4669261 65.7250324 14.4669261 65.7250324 36.8560311C65.7250324 40.3424125 65.7250324 49.618677 75.156939 49.618677 83.079118 49.618677 84.2619974 41.6679637 84.2619974 36.9312581L84.2619974 14.4669261 96.1141375 14.4669261 96.1141375 58.3787289 85.1880674 58.3787289 85.1880674 54.4124514C83.460441 56.5499351 80.3294423 59.7846952 73.309987 59.7846952z"/>
      <polygon points="121.102 58.379 113.1 58.379 113.022 58.166 96.623 14.467 107.777 14.467 117.357 42.742 126.368 14.467 137.665 14.467"/>
      <path d="M152.129702,58.3787289 L140.274968,58.3787289 L140.274968,14.4669261 L152.129702,14.4669261 L152.129702,58.3787289 Z M152.129702,9.61089494 L140.274968,9.61089494 L140.274968,0.121919585 L152.129702,0.121919585 L152.129702,9.61089494 Z"/>
      <polygon points="199.831 58.379 184.804 58.379 169.302 38.529 169.302 58.379 157.458 58.379 157.458 .049 169.313 .049 169.313 34.361 183.886 14.467 197.611 14.467 180.524 35.982"/>
    </g>
    <path fill="#7F3F97" d="M136.505837,35.2944228 C133.670558,15.3929961 116.329442,0.0311284047 95.4241245,0.0311284047 C72.539559,0.0311284047 53.919585,18.4280156 53.919585,41.0376135 L65.8521401,41.0376135 C65.8521401,25.0038911 79.1154345,11.9636835 95.4241245,11.9636835 C99.5634329,11.9608873 103.658024,12.8195589 107.447471,14.4850843 C94.7367056,16.2697795 84.9001297,27.4941634 84.9001297,41.0376135 L96.8326848,41.0376135 C96.8326848,32.8300908 103.19585,26.155642 111.009079,26.155642 C117.623865,26.155642 123.201038,30.9286641 124.757458,37.3644617 C124.916639,38.5823975 124.997221,39.8093204 124.998703,41.0376135 L137.125811,41.0376135 C137.123708,39.1066312 136.915877,37.1813684 136.505837,35.2944228 L136.505837,35.2944228 Z"/>
  </g>
</svg>
